<svg id="visual" viewBox="0 0 1360 768" width="1360" height="768" xmlns="http://www.w3.org/2000/svg" xmlns:xlink="http://www.w3.org/1999/xlink" version="1.1"><rect x="0" y="0" width="1360" height="768" fill="#07071B"></rect><defs><linearGradient id="grad1_0" x1="43.5%" y1="0%" x2="100%" y2="100%"><stop offset="14.583333333333334%" stop-color="#07071b" stop-opacity="1"></stop><stop offset="85.41666666666667%" stop-color="#07071b" stop-opacity="1"></stop></linearGradient></defs><defs><linearGradient id="grad2_0" x1="0%" y1="0%" x2="56.5%" y2="100%"><stop offset="14.583333333333334%" stop-color="#07071b" stop-opacity="1"></stop><stop offset="85.41666666666667%" stop-color="#07071b" stop-opacity="1"></stop></linearGradient></defs><g transform="translate(1360, 0)"><path d="M0 691.2C-77.4 644.1 -154.8 597 -233.4 563.6C-312.1 530.2 -392.1 510.5 -464.6 464.6C-537.1 418.6 -602.1 346.3 -638.6 264.5C-675.1 182.7 -683.2 91.3 -691.2 0L0 0Z" fill="#50207c"></path></g><g transform="translate(0, 768)"><path d="M0 -691.2C78.1 -650.3 156.3 -609.5 240.7 -581.1C325.1 -552.7 415.8 -536.8 486.5 -486.5C557.2 -436.1 607.8 -351.3 638.6 -264.5C669.4 -177.7 680.3 -88.8 691.2 0L0 0Z" fill="#50207c"></path></g></svg>