<svg id="visual" viewBox="0 0 1360 768" width="1360" height="768" xmlns="http://www.w3.org/2000/svg" xmlns:xlink="http://www.w3.org/1999/xlink" version="1.1"><rect x="0" y="0" width="1360" height="768" fill="#0e0e33"></rect><path d="M0 556L32.3 553.8C64.7 551.7 129.3 547.3 194.2 544C259 540.7 324 538.3 388.8 529.7C453.7 521 518.3 506 583 510.7C647.7 515.3 712.3 539.7 777 541.2C841.7 542.7 906.3 521.3 971.2 512.2C1036 503 1101 506 1165.8 513.3C1230.7 520.7 1295.3 532.3 1327.7 538.2L1360 544L1360 769L1327.7 769C1295.3 769 1230.7 769 1165.8 769C1101 769 1036 769 971.2 769C906.3 769 841.7 769 777 769C712.3 769 647.7 769 583 769C518.3 769 453.7 769 388.8 769C324 769 259 769 194.2 769C129.3 769 64.7 769 32.3 769L0 769Z" fill="#6600ff"></path><path d="M0 600L32.3 595.3C64.7 590.7 129.3 581.3 194.2 565.5C259 549.7 324 527.3 388.8 527.5C453.7 527.7 518.3 550.3 583 559.2C647.7 568 712.3 563 777 555C841.7 547 906.3 536 971.2 526.8C1036 517.7 1101 510.3 1165.8 514.5C1230.7 518.7 1295.3 534.3 1327.7 542.2L1360 550L1360 769L1327.7 769C1295.3 769 1230.7 769 1165.8 769C1101 769 1036 769 971.2 769C906.3 769 841.7 769 777 769C712.3 769 647.7 769 583 769C518.3 769 453.7 769 388.8 769C324 769 259 769 194.2 769C129.3 769 64.7 769 32.3 769L0 769Z" fill="#6b48f8"></path><path d="M0 592L32.3 600.8C64.7 609.7 129.3 627.3 194.2 633.8C259 640.3 324 635.7 388.8 625C453.7 614.3 518.3 597.7 583 593.7C647.7 589.7 712.3 598.3 777 602.3C841.7 606.3 906.3 605.7 971.2 610.5C1036 615.3 1101 625.7 1165.8 620.8C1230.7 616 1295.3 596 1327.7 586L1360 576L1360 769L1327.7 769C1295.3 769 1230.7 769 1165.8 769C1101 769 1036 769 971.2 769C906.3 769 841.7 769 777 769C712.3 769 647.7 769 583 769C518.3 769 453.7 769 388.8 769C324 769 259 769 194.2 769C129.3 769 64.7 769 32.3 769L0 769Z" fill="#715df2"></path><path d="M0 628L32.3 627.8C64.7 627.7 129.3 627.3 194.2 627C259 626.7 324 626.3 388.8 636.7C453.7 647 518.3 668 583 678.3C647.7 688.7 712.3 688.3 777 683.8C841.7 679.3 906.3 670.7 971.2 668C1036 665.3 1101 668.7 1165.8 672.3C1230.7 676 1295.3 680 1327.7 682L1360 684L1360 769L1327.7 769C1295.3 769 1230.7 769 1165.8 769C1101 769 1036 769 971.2 769C906.3 769 841.7 769 777 769C712.3 769 647.7 769 583 769C518.3 769 453.7 769 388.8 769C324 769 259 769 194.2 769C129.3 769 64.7 769 32.3 769L0 769Z" fill="#6b48f8"></path><path d="M0 679L32.3 686.2C64.7 693.3 129.3 707.7 194.2 713C259 718.3 324 714.7 388.8 712.7C453.7 710.7 518.3 710.3 583 706.2C647.7 702 712.3 694 777 694.5C841.7 695 906.3 704 971.2 706.8C1036 709.7 1101 706.3 1165.8 703.8C1230.7 701.3 1295.3 699.7 1327.7 698.8L1360 698L1360 769L1327.7 769C1295.3 769 1230.7 769 1165.8 769C1101 769 1036 769 971.2 769C906.3 769 841.7 769 777 769C712.3 769 647.7 769 583 769C518.3 769 453.7 769 388.8 769C324 769 259 769 194.2 769C129.3 769 64.7 769 32.3 769L0 769Z" fill="#6600ff"></path></svg>